<svg width="978" height="311" viewBox="0 0 978 311" fill="none" xmlns="http://www.w3.org/2000/svg">
<path d="M315.227 115.92C309.147 115.92 303.227 115.333 297.467 114.16C291.814 113.093 286.64 111.6 281.947 109.68C277.36 107.76 273.467 105.68 270.267 103.44L280.827 83.44C284.347 85.8933 288.08 88.0267 292.027 89.84C296.08 91.5467 300.294 92.88 304.667 93.84C309.04 94.6933 313.414 95.12 317.787 95.12C322.587 95.12 326.694 94.5867 330.107 93.52C333.627 92.4533 336.294 90.96 338.107 89.04C340.027 87.12 340.987 84.7733 340.987 82C340.987 79.44 339.974 77.36 337.947 75.76C335.92 74.16 333.254 72.8267 329.947 71.76C326.747 70.5867 323.174 69.4667 319.227 68.4C315.28 67.3333 311.28 66.1067 307.227 64.72C303.28 63.2267 299.654 61.4133 296.347 59.28C293.147 57.04 290.534 54.2133 288.507 50.8C286.48 47.3867 285.467 43.12 285.467 38C285.467 30.32 287.547 23.6533 291.707 18C295.974 12.3467 301.947 7.97333 309.627 4.87999C317.307 1.68 326.32 0.079998 336.667 0.079998C344.24 0.079998 351.387 0.93333 358.107 2.63999C364.827 4.23999 370.587 6.58666 375.387 9.68L365.627 29.52C361.36 26.64 356.614 24.5067 351.387 23.12C346.16 21.6267 340.774 20.88 335.227 20.88C330.214 20.88 325.894 21.4667 322.267 22.64C318.747 23.8133 316.027 25.4667 314.107 27.6C312.294 29.6267 311.387 31.9733 311.387 34.64C311.387 37.3067 312.347 39.4933 314.267 41.2C316.294 42.8 318.96 44.1867 322.267 45.36C325.574 46.4267 329.2 47.4933 333.147 48.56C337.094 49.6267 341.04 50.8533 344.987 52.24C348.934 53.6267 352.56 55.3867 355.867 57.52C359.174 59.6533 361.84 62.3733 363.867 65.68C365.894 68.88 366.907 72.9333 366.907 77.84C366.907 85.52 364.774 92.24 360.507 98C356.24 103.653 350.214 108.08 342.427 111.28C334.747 114.373 325.68 115.92 315.227 115.92ZM399.856 114L417.936 23.12H382.096L386.416 1.99999H484.016L479.696 23.12H444.016L425.776 114H399.856ZM455.217 114L527.537 1.99999H553.297L580.817 114H554.897L533.137 14.8H543.377L482.897 114H455.217ZM485.137 90L495.697 70.32H553.457L556.497 90H485.137ZM592.437 114L614.837 1.99999H660.437C674.41 1.99999 685.184 5.03999 692.757 11.12C700.437 17.2 704.277 25.7333 704.277 36.72C704.277 46.1067 702.037 54.2667 697.557 61.2C693.184 68.0267 686.89 73.3067 678.677 77.04C670.57 80.7733 660.97 82.64 649.877 82.64H613.397L626.997 71.28L618.517 114H592.437ZM664.437 114L641.557 73.36H668.757L691.797 114H664.437ZM626.357 74.32L617.397 62H650.837C659.477 62 666.144 60.08 670.837 56.24C675.637 52.2933 678.037 46.5867 678.037 39.12C678.037 33.68 676.17 29.68 672.437 27.12C668.81 24.4533 663.69 23.12 657.077 23.12H625.557L639.157 10.48L626.357 74.32ZM45.0706 310.92C38.9906 310.92 33.0706 310.333 27.3106 309.16C21.6573 308.093 16.484 306.6 11.7906 304.68C7.20396 302.76 3.31063 300.68 0.110625 298.44L10.6706 278.44C14.1906 280.893 17.924 283.027 21.8706 284.84C25.924 286.547 30.1373 287.88 34.5106 288.84C38.884 289.693 43.2573 290.12 47.6306 290.12C52.4306 290.12 56.5373 289.587 59.9506 288.52C63.4706 287.453 66.1373 285.96 67.9506 284.04C69.8706 282.12 70.8306 279.773 70.8306 277C70.8306 274.44 69.8173 272.36 67.7906 270.76C65.764 269.16 63.0973 267.827 59.7906 266.76C56.5906 265.587 53.0173 264.467 49.0706 263.4C45.124 262.333 41.124 261.107 37.0706 259.72C33.124 258.227 29.4973 256.413 26.1906 254.28C22.9906 252.04 20.3773 249.213 18.3506 245.8C16.324 242.387 15.3106 238.12 15.3106 233C15.3106 225.32 17.3906 218.653 21.5506 213C25.8173 207.347 31.7906 202.973 39.4706 199.88C47.1506 196.68 56.164 195.08 66.5106 195.08C74.084 195.08 81.2306 195.933 87.9506 197.64C94.6706 199.24 100.431 201.587 105.231 204.68L95.4706 224.52C91.204 221.64 86.4573 219.507 81.2306 218.12C76.004 216.627 70.6173 215.88 65.0706 215.88C60.0573 215.88 55.7373 216.467 52.1106 217.64C48.5906 218.813 45.8706 220.467 43.9506 222.6C42.1373 224.627 41.2306 226.973 41.2306 229.64C41.2306 232.307 42.1906 234.493 44.1106 236.2C46.1373 237.8 48.804 239.187 52.1106 240.36C55.4173 241.427 59.044 242.493 62.9906 243.56C66.9373 244.627 70.884 245.853 74.8306 247.24C78.7773 248.627 82.404 250.387 85.7106 252.52C89.0173 254.653 91.684 257.373 93.7106 260.68C95.7373 263.88 96.7506 267.933 96.7506 272.84C96.7506 280.52 94.6173 287.24 90.3506 293C86.084 298.653 80.0573 303.08 72.2706 306.28C64.5906 309.373 55.524 310.92 45.0706 310.92ZM166.142 310.92C154.835 310.92 145.075 308.893 136.862 304.84C128.755 300.68 122.515 294.973 118.142 287.72C113.769 280.36 111.582 271.88 111.582 262.28C111.582 252.68 113.235 243.827 116.542 235.72C119.849 227.507 124.542 220.413 130.622 214.44C136.809 208.36 144.115 203.613 152.542 200.2C161.075 196.787 170.515 195.08 180.862 195.08C192.169 195.08 201.875 197.16 209.982 201.32C218.195 205.373 224.489 211.08 228.862 218.44C233.235 225.693 235.422 234.12 235.422 243.72C235.422 253.32 233.769 262.227 230.462 270.44C227.155 278.547 222.409 285.64 216.222 291.72C210.142 297.693 202.835 302.387 194.302 305.8C185.875 309.213 176.489 310.92 166.142 310.92ZM168.382 288.84C174.675 288.84 180.329 287.72 185.342 285.48C190.462 283.133 194.782 279.933 198.302 275.88C201.822 271.827 204.489 267.187 206.302 261.96C208.222 256.627 209.182 251.027 209.182 245.16C209.182 239.613 208.009 234.76 205.662 230.6C203.315 226.333 199.849 223.027 195.262 220.68C190.782 218.333 185.235 217.16 178.622 217.16C172.329 217.16 166.675 218.333 161.662 220.68C156.649 222.92 152.329 226.067 148.702 230.12C145.182 234.173 142.462 238.867 140.542 244.2C138.729 249.427 137.822 254.973 137.822 260.84C137.822 266.387 138.995 271.293 141.342 275.56C143.795 279.72 147.262 282.973 151.742 285.32C156.329 287.667 161.875 288.84 168.382 288.84ZM243.062 309L265.462 197H291.542L273.302 287.88H329.462L325.142 309H243.062ZM391.174 310.92C380.294 310.92 371.228 308.787 363.974 304.52C356.721 300.253 351.601 294.333 348.614 286.76C345.734 279.08 345.308 270.067 347.334 259.72L359.814 197H385.894L373.414 259.24C372.454 264.253 372.188 268.627 372.614 272.36C373.041 276.093 374.108 279.187 375.814 281.64C377.628 284.093 380.081 285.907 383.174 287.08C386.268 288.253 389.894 288.84 394.054 288.84C399.281 288.84 403.814 287.827 407.654 285.8C411.494 283.773 414.694 280.573 417.254 276.2C419.814 271.827 421.788 266.173 423.174 259.24L435.654 197H461.094L448.454 260.84C445.148 277.373 438.694 289.853 429.094 298.28C419.494 306.707 406.854 310.92 391.174 310.92ZM485.793 309L503.873 218.12H468.033L472.353 197H569.953L565.633 218.12H529.953L511.713 309H485.793ZM561.499 309L583.899 197H609.979L587.579 309H561.499ZM672.079 310.92C660.773 310.92 651.013 308.893 642.799 304.84C634.693 300.68 628.453 294.973 624.079 287.72C619.706 280.36 617.519 271.88 617.519 262.28C617.519 252.68 619.173 243.827 622.479 235.72C625.786 227.507 630.479 220.413 636.559 214.44C642.746 208.36 650.053 203.613 658.479 200.2C667.013 196.787 676.453 195.08 686.799 195.08C698.106 195.08 707.813 197.16 715.919 201.32C724.133 205.373 730.426 211.08 734.799 218.44C739.173 225.693 741.359 234.12 741.359 243.72C741.359 253.32 739.706 262.227 736.399 270.44C733.093 278.547 728.346 285.64 722.159 291.72C716.079 297.693 708.773 302.387 700.239 305.8C691.813 309.213 682.426 310.92 672.079 310.92ZM674.319 288.84C680.613 288.84 686.266 287.72 691.279 285.48C696.399 283.133 700.719 279.933 704.239 275.88C707.759 271.827 710.426 267.187 712.239 261.96C714.159 256.627 715.119 251.027 715.119 245.16C715.119 239.613 713.946 234.76 711.599 230.6C709.253 226.333 705.786 223.027 701.199 220.68C696.719 218.333 691.173 217.16 684.559 217.16C678.266 217.16 672.613 218.333 667.599 220.68C662.586 222.92 658.266 226.067 654.639 230.12C651.119 234.173 648.399 238.867 646.479 244.2C644.666 249.427 643.759 254.973 643.759 260.84C643.759 266.387 644.933 271.293 647.279 275.56C649.733 279.72 653.199 282.973 657.679 285.32C662.266 287.667 667.813 288.84 674.319 288.84ZM748.999 309L771.399 197H792.839L840.999 278.12L832.519 277.64L848.519 197H874.119L851.719 309H830.439L782.119 227.88L790.759 228.36L774.599 309H748.999ZM917.258 310.92C911.178 310.92 905.258 310.333 899.498 309.16C893.845 308.093 888.671 306.6 883.978 304.68C879.391 302.76 875.498 300.68 872.298 298.44L882.858 278.44C886.378 280.893 890.111 283.027 894.058 284.84C898.111 286.547 902.325 287.88 906.698 288.84C911.071 289.693 915.445 290.12 919.818 290.12C924.618 290.12 928.725 289.587 932.138 288.52C935.658 287.453 938.325 285.96 940.138 284.04C942.058 282.12 943.018 279.773 943.018 277C943.018 274.44 942.005 272.36 939.978 270.76C937.951 269.16 935.285 267.827 931.978 266.76C928.778 265.587 925.205 264.467 921.258 263.4C917.311 262.333 913.311 261.107 909.258 259.72C905.311 258.227 901.685 256.413 898.378 254.28C895.178 252.04 892.565 249.213 890.538 245.8C888.511 242.387 887.498 238.12 887.498 233C887.498 225.32 889.578 218.653 893.738 213C898.005 207.347 903.978 202.973 911.658 199.88C919.338 196.68 928.351 195.08 938.698 195.08C946.271 195.08 953.418 195.933 960.138 197.64C966.858 199.24 972.618 201.587 977.418 204.68L967.658 224.52C963.391 221.64 958.645 219.507 953.418 218.12C948.191 216.627 942.805 215.88 937.258 215.88C932.245 215.88 927.925 216.467 924.298 217.64C920.778 218.813 918.058 220.467 916.138 222.6C914.325 224.627 913.418 226.973 913.418 229.64C913.418 232.307 914.378 234.493 916.298 236.2C918.325 237.8 920.991 239.187 924.298 240.36C927.605 241.427 931.231 242.493 935.178 243.56C939.125 244.627 943.071 245.853 947.018 247.24C950.965 248.627 954.591 250.387 957.898 252.52C961.205 254.653 963.871 257.373 965.898 260.68C967.925 263.88 968.938 267.933 968.938 272.84C968.938 280.52 966.805 287.24 962.538 293C958.271 298.653 952.245 303.08 944.458 306.28C936.778 309.373 927.711 310.92 917.258 310.92Z" fill="url(#paint0_linear_169_344)"/>
<defs>
<linearGradient id="paint0_linear_169_344" x1="488.5" y1="-41" x2="488.5" y2="366" gradientUnits="userSpaceOnUse">
<stop stop-color="#D9A85D"/>
<stop offset="1" stop-color="#EA9D2A" stop-opacity="0.4"/>
</linearGradient>
</defs>
</svg>
