<svg width="422" height="84" viewBox="0 0 422 84" fill="none" xmlns="http://www.w3.org/2000/svg">
<path d="M40.2403 39.48C38.7203 39.48 37.2403 39.3333 35.8003 39.04C34.387 38.7733 33.0936 38.4 31.9203 37.92C30.7736 37.44 29.8003 36.92 29.0003 36.36L31.6403 31.36C32.5203 31.9733 33.4536 32.5067 34.4403 32.96C35.4536 33.3867 36.507 33.72 37.6003 33.96C38.6936 34.1733 39.787 34.28 40.8803 34.28C42.0803 34.28 43.107 34.1467 43.9603 33.88C44.8403 33.6133 45.507 33.24 45.9603 32.76C46.4403 32.28 46.6803 31.6933 46.6803 31C46.6803 30.36 46.427 29.84 45.9203 29.44C45.4136 29.04 44.747 28.7067 43.9203 28.44C43.1203 28.1467 42.227 27.8667 41.2403 27.6C40.2536 27.3333 39.2536 27.0267 38.2403 26.68C37.2536 26.3067 36.347 25.8533 35.5203 25.32C34.7203 24.76 34.067 24.0533 33.5603 23.2C33.0536 22.3467 32.8003 21.28 32.8003 20C32.8003 18.08 33.3203 16.4133 34.3603 15C35.427 13.5867 36.9203 12.4933 38.8403 11.72C40.7603 10.92 43.0136 10.52 45.6003 10.52C47.4936 10.52 49.2803 10.7333 50.9603 11.16C52.6403 11.56 54.0803 12.1467 55.2803 12.92L52.8403 17.88C51.7736 17.16 50.587 16.6267 49.2803 16.28C47.9736 15.9067 46.627 15.72 45.2403 15.72C43.987 15.72 42.907 15.8667 42.0003 16.16C41.1203 16.4533 40.4403 16.8667 39.9603 17.4C39.507 17.9067 39.2803 18.4933 39.2803 19.16C39.2803 19.8267 39.5203 20.3733 40.0003 20.8C40.507 21.2 41.1736 21.5467 42.0003 21.84C42.827 22.1067 43.7336 22.3733 44.7203 22.64C45.707 22.9067 46.6936 23.2133 47.6803 23.56C48.667 23.9067 49.5736 24.3467 50.4003 24.88C51.227 25.4133 51.8936 26.0933 52.4003 26.92C52.907 27.72 53.1603 28.7333 53.1603 29.96C53.1603 31.88 52.627 33.56 51.5603 35C50.4936 36.4133 48.987 37.52 47.0403 38.32C45.1203 39.0933 42.8536 39.48 40.2403 39.48ZM61.3975 39L65.9175 16.28H56.9575L58.0375 11H82.4375L81.3575 16.28H72.4375L67.8775 39H61.3975ZM75.2378 39L93.3178 11H99.7578L106.638 39H100.158L94.7178 14.2H97.2778L82.1578 39H75.2378ZM82.7178 33L85.3578 28.08H99.7978L100.558 33H82.7178ZM109.543 39L115.143 11H126.543C130.036 11 132.729 11.76 134.623 13.28C136.543 14.8 137.503 16.9333 137.503 19.68C137.503 22.0267 136.943 24.0667 135.823 25.8C134.729 27.5067 133.156 28.8267 131.103 29.76C129.076 30.6933 126.676 31.16 123.903 31.16H114.783L118.183 28.32L116.063 39H109.543ZM127.543 39L121.823 28.84H128.623L134.383 39H127.543ZM118.023 29.08L115.783 26H124.143C126.303 26 127.969 25.52 129.143 24.56C130.343 23.5733 130.943 22.1467 130.943 20.28C130.943 18.92 130.476 17.92 129.543 17.28C128.636 16.6133 127.356 16.28 125.703 16.28H117.823L121.223 13.12L118.023 29.08ZM160.045 39.48C158.525 39.48 157.045 39.3333 155.605 39.04C154.192 38.7733 152.898 38.4 151.725 37.92C150.578 37.44 149.605 36.92 148.805 36.36L151.445 31.36C152.325 31.9733 153.258 32.5067 154.245 32.96C155.258 33.3867 156.312 33.72 157.405 33.96C158.498 34.1733 159.592 34.28 160.685 34.28C161.885 34.28 162.912 34.1467 163.765 33.88C164.645 33.6133 165.312 33.24 165.765 32.76C166.245 32.28 166.485 31.6933 166.485 31C166.485 30.36 166.232 29.84 165.725 29.44C165.218 29.04 164.552 28.7067 163.725 28.44C162.925 28.1467 162.032 27.8667 161.045 27.6C160.058 27.3333 159.058 27.0267 158.045 26.68C157.058 26.3067 156.152 25.8533 155.325 25.32C154.525 24.76 153.872 24.0533 153.365 23.2C152.858 22.3467 152.605 21.28 152.605 20C152.605 18.08 153.125 16.4133 154.165 15C155.232 13.5867 156.725 12.4933 158.645 11.72C160.565 10.92 162.818 10.52 165.405 10.52C167.298 10.52 169.085 10.7333 170.765 11.16C172.445 11.56 173.885 12.1467 175.085 12.92L172.645 17.88C171.578 17.16 170.392 16.6267 169.085 16.28C167.778 15.9067 166.432 15.72 165.045 15.72C163.792 15.72 162.712 15.8667 161.805 16.16C160.925 16.4533 160.245 16.8667 159.765 17.4C159.312 17.9067 159.085 18.4933 159.085 19.16C159.085 19.8267 159.325 20.3733 159.805 20.8C160.312 21.2 160.978 21.5467 161.805 21.84C162.632 22.1067 163.538 22.3733 164.525 22.64C165.512 22.9067 166.498 23.2133 167.485 23.56C168.472 23.9067 169.378 24.3467 170.205 24.88C171.032 25.4133 171.698 26.0933 172.205 26.92C172.712 27.72 172.965 28.7333 172.965 29.96C172.965 31.88 172.432 33.56 171.365 35C170.298 36.4133 168.792 37.52 166.845 38.32C164.925 39.0933 162.658 39.48 160.045 39.48ZM190.313 39.48C187.486 39.48 185.046 38.9733 182.993 37.96C180.966 36.92 179.406 35.4933 178.313 33.68C177.219 31.84 176.673 29.72 176.673 27.32C176.673 24.92 177.086 22.7067 177.913 20.68C178.739 18.6267 179.913 16.8533 181.433 15.36C182.979 13.84 184.806 12.6533 186.913 11.8C189.046 10.9467 191.406 10.52 193.993 10.52C196.819 10.52 199.246 11.04 201.273 12.08C203.326 13.0933 204.899 14.52 205.993 16.36C207.086 18.1733 207.633 20.28 207.633 22.68C207.633 25.08 207.219 27.3067 206.393 29.36C205.566 31.3867 204.379 33.16 202.833 34.68C201.313 36.1733 199.486 37.3467 197.353 38.2C195.246 39.0533 192.899 39.48 190.313 39.48ZM190.873 33.96C192.446 33.96 193.859 33.68 195.113 33.12C196.393 32.5333 197.473 31.7333 198.353 30.72C199.233 29.7067 199.899 28.5467 200.353 27.24C200.833 25.9067 201.073 24.5067 201.073 23.04C201.073 21.6533 200.779 20.44 200.193 19.4C199.606 18.3333 198.739 17.5067 197.593 16.92C196.473 16.3333 195.086 16.04 193.433 16.04C191.859 16.04 190.446 16.3333 189.193 16.92C187.939 17.48 186.859 18.2667 185.953 19.28C185.073 20.2933 184.393 21.4667 183.913 22.8C183.459 24.1067 183.233 25.4933 183.233 26.96C183.233 28.3467 183.526 29.5733 184.113 30.64C184.726 31.68 185.593 32.4933 186.713 33.08C187.859 33.6667 189.246 33.96 190.873 33.96ZM209.543 39L215.143 11H221.663L217.103 33.72H231.143L230.063 39H209.543ZM246.571 39.48C243.851 39.48 241.584 38.9467 239.771 37.88C237.958 36.8133 236.678 35.3333 235.931 33.44C235.211 31.52 235.104 29.2667 235.611 26.68L238.731 11H245.251L242.131 26.56C241.891 27.8133 241.824 28.9067 241.931 29.84C242.038 30.7733 242.304 31.5467 242.731 32.16C243.184 32.7733 243.798 33.2267 244.571 33.52C245.344 33.8133 246.251 33.96 247.291 33.96C248.598 33.96 249.731 33.7067 250.691 33.2C251.651 32.6933 252.451 31.8933 253.091 30.8C253.731 29.7067 254.224 28.2933 254.571 26.56L257.691 11H264.051L260.891 26.96C260.064 31.0933 258.451 34.2133 256.051 36.32C253.651 38.4267 250.491 39.48 246.571 39.48ZM270.226 39L274.746 16.28H265.786L266.866 11H291.266L290.186 16.28H281.266L276.706 39H270.226ZM289.152 39L294.752 11H301.272L295.672 39H289.152ZM316.797 39.48C313.971 39.48 311.531 38.9733 309.477 37.96C307.451 36.92 305.891 35.4933 304.797 33.68C303.704 31.84 303.157 29.72 303.157 27.32C303.157 24.92 303.571 22.7067 304.397 20.68C305.224 18.6267 306.397 16.8533 307.917 15.36C309.464 13.84 311.291 12.6533 313.397 11.8C315.531 10.9467 317.891 10.52 320.477 10.52C323.304 10.52 325.731 11.04 327.757 12.08C329.811 13.0933 331.384 14.52 332.477 16.36C333.571 18.1733 334.117 20.28 334.117 22.68C334.117 25.08 333.704 27.3067 332.877 29.36C332.051 31.3867 330.864 33.16 329.317 34.68C327.797 36.1733 325.971 37.3467 323.837 38.2C321.731 39.0533 319.384 39.48 316.797 39.48ZM317.357 33.96C318.931 33.96 320.344 33.68 321.597 33.12C322.877 32.5333 323.957 31.7333 324.837 30.72C325.717 29.7067 326.384 28.5467 326.837 27.24C327.317 25.9067 327.557 24.5067 327.557 23.04C327.557 21.6533 327.264 20.44 326.677 19.4C326.091 18.3333 325.224 17.5067 324.077 16.92C322.957 16.3333 321.571 16.04 319.917 16.04C318.344 16.04 316.931 16.3333 315.677 16.92C314.424 17.48 313.344 18.2667 312.437 19.28C311.557 20.2933 310.877 21.4667 310.397 22.8C309.944 24.1067 309.717 25.4933 309.717 26.96C309.717 28.3467 310.011 29.5733 310.597 30.64C311.211 31.68 312.077 32.4933 313.197 33.08C314.344 33.6667 315.731 33.96 317.357 33.96ZM336.027 39L341.627 11H346.987L359.027 31.28L356.907 31.16L360.907 11H367.307L361.707 39H356.387L344.307 18.72L346.467 18.84L342.427 39H336.027ZM378.092 39.48C376.572 39.48 375.092 39.3333 373.652 39.04C372.239 38.7733 370.945 38.4 369.772 37.92C368.625 37.44 367.652 36.92 366.852 36.36L369.492 31.36C370.372 31.9733 371.305 32.5067 372.292 32.96C373.305 33.3867 374.359 33.72 375.452 33.96C376.545 34.1733 377.639 34.28 378.732 34.28C379.932 34.28 380.959 34.1467 381.812 33.88C382.692 33.6133 383.359 33.24 383.812 32.76C384.292 32.28 384.532 31.6933 384.532 31C384.532 30.36 384.279 29.84 383.772 29.44C383.265 29.04 382.599 28.7067 381.772 28.44C380.972 28.1467 380.079 27.8667 379.092 27.6C378.105 27.3333 377.105 27.0267 376.092 26.68C375.105 26.3067 374.199 25.8533 373.372 25.32C372.572 24.76 371.919 24.0533 371.412 23.2C370.905 22.3467 370.652 21.28 370.652 20C370.652 18.08 371.172 16.4133 372.212 15C373.279 13.5867 374.772 12.4933 376.692 11.72C378.612 10.92 380.865 10.52 383.452 10.52C385.345 10.52 387.132 10.7333 388.812 11.16C390.492 11.56 391.932 12.1467 393.132 12.92L390.692 17.88C389.625 17.16 388.439 16.6267 387.132 16.28C385.825 15.9067 384.479 15.72 383.092 15.72C381.839 15.72 380.759 15.8667 379.852 16.16C378.972 16.4533 378.292 16.8667 377.812 17.4C377.359 17.9067 377.132 18.4933 377.132 19.16C377.132 19.8267 377.372 20.3733 377.852 20.8C378.359 21.2 379.025 21.5467 379.852 21.84C380.679 22.1067 381.585 22.3733 382.572 22.64C383.559 22.9067 384.545 23.2133 385.532 23.56C386.519 23.9067 387.425 24.3467 388.252 24.88C389.079 25.4133 389.745 26.0933 390.252 26.92C390.759 27.72 391.012 28.7333 391.012 29.96C391.012 31.88 390.479 33.56 389.412 35C388.345 36.4133 386.839 37.52 384.892 38.32C382.972 39.0933 380.705 39.48 378.092 39.48Z" fill="url(#paint0_linear_344_981)"/>
<path d="M133.872 80.192C132.592 80.192 131.408 79.984 130.32 79.568C129.248 79.136 128.312 78.536 127.512 77.768C126.728 76.984 126.112 76.072 125.664 75.032C125.216 73.992 124.992 72.848 124.992 71.6C124.992 70.352 125.216 69.208 125.664 68.168C126.112 67.128 126.736 66.224 127.536 65.456C128.336 64.672 129.272 64.072 130.344 63.656C131.432 63.224 132.616 63.008 133.896 63.008C135.192 63.008 136.384 63.232 137.472 63.68C138.576 64.112 139.512 64.76 140.28 65.624L138.72 67.136C138.08 66.464 137.36 65.968 136.56 65.648C135.76 65.312 134.904 65.144 133.992 65.144C133.048 65.144 132.168 65.304 131.352 65.624C130.552 65.944 129.856 66.392 129.264 66.968C128.672 67.544 128.208 68.232 127.872 69.032C127.552 69.816 127.392 70.672 127.392 71.6C127.392 72.528 127.552 73.392 127.872 74.192C128.208 74.976 128.672 75.656 129.264 76.232C129.856 76.808 130.552 77.256 131.352 77.576C132.168 77.896 133.048 78.056 133.992 78.056C134.904 78.056 135.76 77.896 136.56 77.576C137.36 77.24 138.08 76.728 138.72 76.04L140.28 77.552C139.512 78.416 138.576 79.072 137.472 79.52C136.384 79.968 135.184 80.192 133.872 80.192ZM140.761 80L148.369 63.2H150.745L158.377 80H155.857L149.065 64.544H150.025L143.233 80H140.761ZM144.001 75.8L144.649 73.88H154.105L154.801 75.8H144.001ZM160.883 80V63.2H167.435C168.907 63.2 170.163 63.432 171.203 63.896C172.243 64.36 173.043 65.032 173.603 65.912C174.163 66.792 174.443 67.84 174.443 69.056C174.443 70.272 174.163 71.32 173.603 72.2C173.043 73.064 172.243 73.728 171.203 74.192C170.163 74.656 168.907 74.888 167.435 74.888H162.203L163.283 73.784V80H160.883ZM172.115 80L167.843 73.904H170.411L174.731 80H172.115ZM163.283 74.024L162.203 72.848H167.363C168.899 72.848 170.059 72.52 170.843 71.864C171.643 71.192 172.043 70.256 172.043 69.056C172.043 67.856 171.643 66.928 170.843 66.272C170.059 65.616 168.899 65.288 167.363 65.288H162.203L163.283 64.088V74.024ZM189.662 80.192C188.382 80.192 187.158 80 185.99 79.616C184.822 79.216 183.902 78.704 183.23 78.08L184.118 76.208C184.758 76.768 185.574 77.232 186.566 77.6C187.558 77.968 188.59 78.152 189.662 78.152C190.638 78.152 191.43 78.04 192.038 77.816C192.646 77.592 193.094 77.288 193.382 76.904C193.67 76.504 193.814 76.056 193.814 75.56C193.814 74.984 193.622 74.52 193.238 74.168C192.87 73.816 192.382 73.536 191.774 73.328C191.182 73.104 190.526 72.912 189.806 72.752C189.086 72.592 188.358 72.408 187.622 72.2C186.902 71.976 186.238 71.696 185.63 71.36C185.038 71.024 184.558 70.576 184.19 70.016C183.822 69.44 183.638 68.704 183.638 67.808C183.638 66.944 183.862 66.152 184.31 65.432C184.774 64.696 185.478 64.112 186.422 63.68C187.382 63.232 188.598 63.008 190.07 63.008C191.046 63.008 192.014 63.136 192.974 63.392C193.934 63.648 194.766 64.016 195.47 64.496L194.678 66.416C193.958 65.936 193.198 65.592 192.398 65.384C191.598 65.16 190.822 65.048 190.07 65.048C189.126 65.048 188.35 65.168 187.742 65.408C187.134 65.648 186.686 65.968 186.398 66.368C186.126 66.768 185.99 67.216 185.99 67.712C185.99 68.304 186.174 68.776 186.542 69.128C186.926 69.48 187.414 69.76 188.006 69.968C188.614 70.176 189.278 70.368 189.998 70.544C190.718 70.704 191.438 70.888 192.158 71.096C192.894 71.304 193.558 71.576 194.15 71.912C194.758 72.248 195.246 72.696 195.614 73.256C195.982 73.816 196.166 74.536 196.166 75.416C196.166 76.264 195.934 77.056 195.47 77.792C195.006 78.512 194.286 79.096 193.31 79.544C192.35 79.976 191.134 80.192 189.662 80.192ZM201.856 70.448H210.496V72.488H201.856V70.448ZM202.072 77.912H211.864V80H199.672V63.2H211.528V65.288H202.072V77.912ZM215.75 80V63.2H222.302C223.774 63.2 225.03 63.432 226.07 63.896C227.11 64.36 227.91 65.032 228.47 65.912C229.03 66.792 229.31 67.84 229.31 69.056C229.31 70.272 229.03 71.32 228.47 72.2C227.91 73.064 227.11 73.728 226.07 74.192C225.03 74.656 223.774 74.888 222.302 74.888H217.07L218.15 73.784V80H215.75ZM226.982 80L222.71 73.904H225.278L229.598 80H226.982ZM218.15 74.024L217.07 72.848H222.23C223.766 72.848 224.926 72.52 225.71 71.864C226.51 71.192 226.91 70.256 226.91 69.056C226.91 67.856 226.51 66.928 225.71 66.272C224.926 65.616 223.766 65.288 222.23 65.288H217.07L218.15 64.088V74.024ZM238.036 80L230.644 63.2H233.236L240.028 78.704H238.54L245.38 63.2H247.78L240.412 80H238.036ZM249.922 80V63.2H252.322V80H249.922ZM264.864 80.192C263.584 80.192 262.4 79.984 261.312 79.568C260.24 79.136 259.304 78.536 258.504 77.768C257.72 76.984 257.104 76.072 256.656 75.032C256.208 73.992 255.984 72.848 255.984 71.6C255.984 70.352 256.208 69.208 256.656 68.168C257.104 67.128 257.728 66.224 258.528 65.456C259.328 64.672 260.264 64.072 261.336 63.656C262.424 63.224 263.608 63.008 264.888 63.008C266.184 63.008 267.376 63.232 268.464 63.68C269.568 64.112 270.504 64.76 271.272 65.624L269.712 67.136C269.072 66.464 268.352 65.968 267.552 65.648C266.752 65.312 265.896 65.144 264.984 65.144C264.04 65.144 263.16 65.304 262.344 65.624C261.544 65.944 260.848 66.392 260.256 66.968C259.664 67.544 259.2 68.232 258.864 69.032C258.544 69.816 258.384 70.672 258.384 71.6C258.384 72.528 258.544 73.392 258.864 74.192C259.2 74.976 259.664 75.656 260.256 76.232C260.848 76.808 261.544 77.256 262.344 77.576C263.16 77.896 264.04 78.056 264.984 78.056C265.896 78.056 266.752 77.896 267.552 77.576C268.352 77.24 269.072 76.728 269.712 76.04L271.272 77.552C270.504 78.416 269.568 79.072 268.464 79.52C267.376 79.968 266.176 80.192 264.864 80.192ZM276.88 70.448H285.52V72.488H276.88V70.448ZM277.096 77.912H286.888V80H274.696V63.2H286.552V65.288H277.096V77.912ZM295.67 80.192C294.39 80.192 293.166 80 291.998 79.616C290.83 79.216 289.91 78.704 289.238 78.08L290.126 76.208C290.766 76.768 291.582 77.232 292.574 77.6C293.566 77.968 294.598 78.152 295.67 78.152C296.646 78.152 297.438 78.04 298.046 77.816C298.654 77.592 299.102 77.288 299.39 76.904C299.678 76.504 299.822 76.056 299.822 75.56C299.822 74.984 299.63 74.52 299.246 74.168C298.878 73.816 298.39 73.536 297.782 73.328C297.19 73.104 296.534 72.912 295.814 72.752C295.094 72.592 294.366 72.408 293.63 72.2C292.91 71.976 292.246 71.696 291.638 71.36C291.046 71.024 290.566 70.576 290.198 70.016C289.83 69.44 289.646 68.704 289.646 67.808C289.646 66.944 289.87 66.152 290.318 65.432C290.782 64.696 291.486 64.112 292.43 63.68C293.39 63.232 294.606 63.008 296.078 63.008C297.054 63.008 298.022 63.136 298.982 63.392C299.942 63.648 300.774 64.016 301.478 64.496L300.686 66.416C299.966 65.936 299.206 65.592 298.406 65.384C297.606 65.16 296.83 65.048 296.078 65.048C295.134 65.048 294.358 65.168 293.75 65.408C293.142 65.648 292.694 65.968 292.406 66.368C292.134 66.768 291.998 67.216 291.998 67.712C291.998 68.304 292.182 68.776 292.55 69.128C292.934 69.48 293.422 69.76 294.014 69.968C294.622 70.176 295.286 70.368 296.006 70.544C296.726 70.704 297.446 70.888 298.166 71.096C298.902 71.304 299.566 71.576 300.158 71.912C300.766 72.248 301.254 72.696 301.622 73.256C301.99 73.816 302.174 74.536 302.174 75.416C302.174 76.264 301.942 77.056 301.478 77.792C301.014 78.512 300.294 79.096 299.318 79.544C298.358 79.976 297.142 80.192 295.67 80.192Z" fill="url(#paint1_linear_344_981)"/>
<defs>
<linearGradient id="paint0_linear_344_981" x1="211" y1="0" x2="211" y2="48" gradientUnits="userSpaceOnUse">
<stop stop-color="#D9A85D"/>
<stop offset="1" stop-color="#EA9D2A" stop-opacity="0.4"/>
</linearGradient>
<linearGradient id="paint1_linear_344_981" x1="213.5" y1="57" x2="213.5" y2="84" gradientUnits="userSpaceOnUse">
<stop stop-color="#D9A85D"/>
<stop offset="1" stop-color="#EA9D2A" stop-opacity="0.4"/>
</linearGradient>
</defs>
</svg>
